<?xml version="1.0" standalone="no"?>
<!DOCTYPE svg PUBLIC "-//W3C//DTD SVG 20010904//EN"
 "http://www.w3.org/TR/2001/REC-SVG-20010904/DTD/svg10.dtd">
<svg version="1.0" xmlns="http://www.w3.org/2000/svg"
 width="24pt" height="24t" viewBox="0 0 512.000000 457.000000"
 preserveAspectRatio="xMidYMid meet">

<g transform="translate(0.000000,457.000000) scale(0.100000,-0.100000)"
fill="#000000" stroke="none">
<path d="M1335 4559 c-628 -86 -1133 -533 -1285 -1134 -74 -290 -64 -577 30
-856 62 -187 141 -331 270 -494 82 -104 1951 -1977 2010 -2014 55 -36 138 -61
200 -61 55 0 141 24 190 52 45 27 1854 1830 1972 1967 197 227 308 448 369
731 31 140 33 436 6 575 -64 317 -198 567 -426 796 -230 229 -488 367 -802
425 -143 27 -430 25 -565 -4 -254 -55 -502 -174 -676 -323 -31 -27 -61 -49
-66 -49 -6 0 -34 21 -64 46 -178 153 -424 271 -675 324 -114 24 -377 35 -488
19z"/>
</g>
</svg>
