<svg width="100" height="100" viewBox="0 0 48 48" fill="#EAEAEA" xmlns="http://www.w3.org/2000/svg">
<path d="M38.0531 2.08952C31.8838 1.4411 26.3372 5.93268 25.6888 12.1019L24.5619 22.8241C24.4807 23.5965 25.041 24.2885 25.8134 24.3697L26.2796 24.4187L25.1036 35.607C24.5633 40.7481 28.3063 45.3703 33.4473 45.9106C38.5884 46.451 43.2106 42.708 43.7509 37.567L44.9269 26.3786L45.3931 26.4276C46.1654 26.5088 46.8574 25.9484 46.9386 25.176L48.0655 14.4538C48.714 8.28457 44.2224 2.73794 38.0531 2.08952ZM37.7591 4.88661C42.3861 5.37292 45.7548 9.5329 45.2685 14.1598L44.8765 17.8893L28.0939 16.1254L28.4859 12.3959C28.9722 7.76898 33.1322 4.4003 37.7591 4.88661ZM27.5059 21.7196L27.7999 18.9225L44.5825 20.6864L44.2885 23.4835L27.5059 21.7196ZM40.9538 37.273C40.5756 40.8717 37.3401 43.4918 33.7413 43.1135C30.1426 42.7353 27.5225 39.4998 27.9007 35.901L29.0767 24.7127L42.1298 26.0846L40.9538 37.273Z" fill="#FF5A30"/>
<path d="M32.1706 40.1204L35.9 40.5123C36.6724 40.5935 37.3644 40.0332 37.4456 39.2608C37.5267 38.4884 36.9664 37.7964 36.194 37.7152L32.4646 37.3233C31.6922 37.2421 31.0002 37.8024 30.919 38.5748C30.8378 39.3472 31.3982 40.0392 32.1706 40.1204Z" fill="#FF5A30"/>
<path d="M9.94711 2.08968C3.77785 2.7381 -0.713728 8.28473 -0.0653115 14.454L1.06164 25.1762C1.14282 25.9486 1.8348 26.5089 2.60718 26.4277L3.07336 26.3787L4.2493 37.5671C4.78965 42.7082 9.41184 46.4511 14.5529 45.9108C19.694 45.3705 23.4369 40.7483 22.8966 35.6072L21.7206 24.4188L22.1868 24.3698C22.9592 24.2887 23.5196 23.5967 23.4384 22.8243L22.3114 12.1021C21.663 5.93284 16.1164 1.44126 9.94711 2.08968ZM3.71174 23.4837L3.41775 20.6866L20.2003 18.9226L20.4943 21.7197L3.71174 23.4837ZM20.0995 35.9012C20.4777 39.4999 17.8577 42.7355 14.2589 43.1137C10.6602 43.492 7.42464 40.8719 7.0464 37.2731L5.87045 26.0848L18.9236 24.7128L20.0995 35.9012ZM19.9063 16.1255L3.12376 17.8895L2.73178 14.16C2.24547 9.53306 5.61415 5.37308 10.2411 4.88677C14.8681 4.40046 19.028 7.76914 19.5143 12.3961L19.9063 16.1255Z" fill="#FF5A30"/>
<path d="M12.1002 40.5124L15.8297 40.1204C16.602 40.0392 17.1624 39.3473 17.0812 38.5749C17 37.8025 16.308 37.2422 15.5357 37.3233L11.8062 37.7153C11.0338 37.7965 10.4735 38.4885 10.5547 39.2609C10.6358 40.0332 11.3278 40.5936 12.1002 40.5124Z" fill="#FF5A30"/>
</svg>
