<?xml version="1.0" standalone="no"?>
<!DOCTYPE svg PUBLIC "-//W3C//DTD SVG 20010904//EN"
 "http://www.w3.org/TR/2001/REC-SVG-20010904/DTD/svg10.dtd">
<svg version="1.0" xmlns="http://www.w3.org/2000/svg"
 width="24.000000pt" height="24.000000pt" viewBox="0 0 24.000000 24.000000"
 preserveAspectRatio="xMidYMid meet">

<g transform="translate(0.000000,24.000000) scale(0.100000,-0.100000)"
fill="#000000" stroke="none">
<path d="M5 221 c-3 -5 5 -11 17 -13 17 -2 25 -14 34 -53 7 -27 11 -60 7 -72
-3 -13 -1 -23 5 -23 6 0 8 -9 5 -20 -4 -16 0 -20 17 -20 17 0 21 4 17 20 -4
17 0 20 33 20 33 0 37 -3 33 -20 -4 -15 0 -20 16 -20 16 0 20 6 19 25 -2 24
-5 25 -73 27 l-70 2 67 3 c36 2 70 9 75 16 9 11 33 86 33 101 0 3 -40 6 -89 6
-70 0 -90 3 -95 15 -6 16 -41 20 -51 6z m215 -50 c0 -4 -5 -22 -11 -40 -11
-30 -13 -31 -70 -31 -32 0 -59 4 -59 9 0 5 -3 23 -6 40 l-6 31 76 0 c42 0 76
-4 76 -9z"/>
</g>
</svg>
